<?xml version="1.0" standalone="no"?>
<!DOCTYPE svg PUBLIC "-//W3C//DTD SVG 20010904//EN"
 "http://www.w3.org/TR/2001/REC-SVG-20010904/DTD/svg10.dtd">
<svg version="1.0" xmlns="http://www.w3.org/2000/svg"
 width="225.000000pt" height="225.000000pt" viewBox="0 0 225.000000 225.000000"
 preserveAspectRatio="xMidYMid meet">

<g transform="translate(0.000000,225.000000) scale(0.100000,-0.100000)"
fill="#000000" stroke="none">
<path d="M0 1125 l0 -1125 1125 0 1125 0 0 1125 0 1125 -1125 0 -1125 0 0
-1125z m469 559 c2 -2 -38 -129 -89 -282 l-94 -278 26 -80 c15 -43 56 -164 92
-269 36 -104 66 -195 66 -201 0 -11 -97 -61 -104 -53 -4 4 -47 119 -165 447
-28 78 -51 148 -51 155 0 7 41 128 91 268 50 140 98 275 106 301 l16 47 51
-26 c28 -14 53 -27 55 -29z m1440 -9 c12 -33 44 -123 71 -200 27 -77 66 -187
86 -243 l37 -104 -20 -61 c-22 -66 -96 -273 -160 -449 l-38 -106 -53 26 c-28
14 -52 30 -52 36 0 6 30 97 66 201 82 237 114 336 114 353 0 8 -30 100 -66
205 -36 106 -78 228 -93 272 l-28 79 56 27 c31 14 57 26 57 25 1 0 11 -28 23
-61z m-994 -162 c8 -20 59 -148 112 -285 53 -136 99 -248 102 -248 3 0 53 128
111 283 l106 282 172 3 172 2 0 -49 c0 -52 1 -51 -62 -65 l-28 -6 0 -300 0
-300 23 0 c12 0 32 -3 45 -6 21 -6 23 -12 20 -58 l-3 -51 -150 -3 c-197 -4
-195 -4 -195 58 l0 49 45 7 45 6 0 107 c0 58 3 180 6 271 4 91 4 163 2 160 -3
-3 -60 -148 -128 -322 l-123 -318 -66 0 -66 0 -125 314 c-68 173 -125 314
-126 313 -1 -1 1 -120 4 -263 l5 -262 49 -6 49 -7 -3 -52 -3 -52 -149 -3
c-196 -4 -196 -4 -196 58 l0 49 45 7 45 6 -2 302 c-3 292 -4 301 -23 304 -65
10 -65 10 -65 62 l0 50 170 0 170 0 15 -37z"/>
</g>
</svg>
